<svg xmlns="http://www.w3.org/2000/svg" width="17" height="17"><g fill="#fff"><rect width="3" height="1" x="7" y="0"/><rect width="1" height="9" x="0" y="4"/><rect width="2" height="1" x="14" y="3"/><rect width="3" height="1" x="7" y="16"/><rect width="2" height="1" x="5" y="15"/><rect width="2" height="1" x="3" y="14"/><rect width="2" height="1" x="1" y="13"/><rect width="1" height="7" x="8" y="9"/><rect width="3" height="1" x="7" y="8"/><rect width="1" height="9" x="16" y="4"/><rect width="2" height="1" x="10" y="15"/><rect width="2" height="1" x="12" y="14"/><rect width="2" height="1" x="14" y="13"/><rect width="2" height="1" x="14" y="13"/><rect width="2" height="1" x="14" y="5"/><rect width="2" height="1" x="12" y="6"/><rect width="1" height="1" x="9" y="11"/><rect width="2" height="1" x="14" y="8"/><rect width="2" height="1" x="12" y="9"/><rect width="1" height="1" x="7" y="11"/><rect width="2" height="1" x="5" y="10"/><rect width="2" height="1" x="10" y="10"/><rect width="2" height="1" x="10" y="7"/><rect width="2" height="1" x="1" y="8"/><rect width="2" height="1" x="5" y="7"/><rect width="1" height="3" x="4" y="9"/><rect width="1" height="3" x="3" y="8"/><rect width="2" height="1" x="3" y="6"/><rect width="2" height="1" x="1" y="5"/><rect width="2" height="1" x="1" y="3"/><rect width="2" height="1" x="3" y="2"/><rect width="2" height="1" x="12" y="2"/><rect width="2" height="1" x="10" y="1"/><rect width="2" height="1" x="5" y="1"/></g></svg>