<svg xmlns="http://www.w3.org/2000/svg" width="16" height="16"><g fill="#fff" stroke-width="0" stroke-opacity="0"><rect width="3" height="1" x="1" y="1"/><rect width="1" height="1" x="4" y="2"/><rect width="6" height="1" x="5" y="3"/><rect width="1" height="1" x="11" y="4"/><rect width="10" height="1" x="5" y="5"/><rect width="10" height="1" x="4" y="6"/><rect width="10" height="1" x="3" y="7"/><rect width="13" height="1" x="2" y="8"/><rect width="3" height="1" x="1" y="9"/><rect width="2" height="1" x="1" y="10"/><rect width="1" height="1" x="1" y="11"/><rect width="1" height="11" x="0" y="2"/><rect width="11" height="1" x="1" y="13"/><rect width="1" height="1" x="12" y="12"/><rect width="1" height="1" x="13" y="11"/><rect width="1" height="1" x="14" y="10"/><rect width="1" height="1" x="15" y="9"/></g></svg>