<svg xmlns="http://www.w3.org/2000/svg" width="16" height="16"><g fill="#fff"><rect width="14" height="1" x="1" y="4"/><rect width="10" height="1" x="3" y="15"/><rect width="1" height="1" x="10" y="1"/><rect width="1" height="1" x="5" y="1"/><rect width="6" height="1" x="5" y="0"/><rect width="10" height="1" x="3" y="2"/><rect width="1" height="12" x="2" y="3"/><rect width="1" height="1" x="8" y="13"/><rect width="1" height="1" x="7" y="8"/><rect width="1" height="1" x="8" y="11"/><rect width="1" height="1" x="7" y="6"/><rect width="4" height="1" x="6" y="12"/><rect width="4" height="1" x="6" y="7"/><rect width="1" height="3" x="5" y="9"/><rect width="1" height="3" x="10" y="8"/><rect width="1" height="12" x="13" y="3"/></g></svg>